# xmcd
#
# Track frame offsets: 
#        150
#        12737
#        25580
#        36562
#        48547
#        61647
#        74127
#        86817
#        96482
#        109442
#        120182
#        133580
#
# Disc length: 1988 seconds
#
# Revision: 1
# Processed by: cddbd v1.5.2PL0 Copyright (c) Steve Scherf et al.
# Submitted via: ExactAudioCopy v0.95b4
#
DISCID=ae07c20c
DTITLE=Mickey Gilley - 36 All-Time Favorites - Disc 1
DYEAR=2001
DGENRE=Country
TTITLE0=City Lights
TTITLE1=Room Full Of Roses
TTITLE2=Bouquet Of Roses
TTITLE3=Window Up Above
TTITLE4=I Overlooked An Orchid
TTITLE5=Honky Tonk Memories
TTITLE6=Fraulein
TTITLE7=She Called Me Baby
TTITLE8=Drinking Champagne
TTITLE9=Don't Be Angry
TTITLE10=Don't The Girls All Get Prettier At Closing Time
TTITLE11=How I Love Them Old Songs
EXTD=Entered By Itaot...
EXTT0=
EXTT1=
EXTT2=
EXTT3=
EXTT4=
EXTT5=
EXTT6=
EXTT7=
EXTT8=
EXTT9=
EXTT10=
EXTT11=
PLAYORDER=
